<?xml version="1.0" encoding="utf-8"?>
<!-- Generator: Adobe Illustrator 15.0.0, SVG Export Plug-In . SVG Version: 6.00 Build 0)  -->
<!DOCTYPE svg PUBLIC "-//W3C//DTD SVG 1.1//EN" "http://www.w3.org/Graphics/SVG/1.1/DTD/svg11.dtd">
<svg version="1.1" id="Capa_1" xmlns="http://www.w3.org/2000/svg" xmlns:xlink="http://www.w3.org/1999/xlink" x="0px" y="0px"
	 width="113.387px" height="113.386px" viewBox="0 0 113.387 113.386" enable-background="new 0 0 113.387 113.386"
	 xml:space="preserve">
<g>
	<rect x="45.243" y="53.168" fill-rule="evenodd" clip-rule="evenodd" fill="#FFFFFF" width="25.336" height="19.67"/>
	<g id="e5UMwH_5_">
		<g>
			<path fill-rule="evenodd" clip-rule="evenodd" d="M69.859,34.326c0.143,1.438-0.684,1.906-1.443,2.445
				c-0.175,1.175-1.31,1.223-1.444,2.223c-0.299,2.196,3.28,3.005,3.112,5.444c-1.923,1.5-3.397,0.018-4.449-1.334
				c-0.38-0.493-0.777-1.213-0.886-1.222c-0.377-0.033-0.985,1.158-1.445,1.666c-0.463,0.515-1.26,1.277-1.663,1.333
				c-1.043,0.151-4.701,0.252-5.335-0.22c-0.687-0.512-0.413-1.576-1.446-2.113c-1.14,0.173-2.295-0.235-3.112,0
				c-0.954,0.279-0.942,1.204-1.333,2.001c-0.751,0.243-2.043,0.769-2.886,0.221c-0.595-0.949,0.077-2.194,0.664-2.666
				c0.562-1.899,1.661-4.12,2.555-6.109c0.302-0.668,0.646-1.522,1-1.78c0.828-0.597,2.5-0.509,3.226,0.111
				c0.357,0.307,0.391,0.812,0.664,1.445c0.223,0.511,0.621,0.994,0.781,1.333c0.95,2.071,1.368,4.597,2.885,5.999
				c0.845-0.248,1.194-1.063,1.78-1.777c0.465-0.566,1.416-1.332,1.443-2.001c0.073-1.756-3.546-2.702-2.888-5
				c2.409-1.527,3.93,1.104,4.998,2.334C66.022,35.599,67.463,32.656,69.859,34.326z M52.86,39.88c0.346-0.022,0.813,0.077,1-0.109
				c-0.013-0.618,0.087-1.347-0.223-1.668C52.551,37.904,52.458,39.249,52.86,39.88z"/>
			<path fill-rule="evenodd" clip-rule="evenodd" d="M49.192,35.88c-0.526,0.885-2.117,0.697-3.332,0.891
				c-1.279,2.339,1.288,10.269-3.335,7.778c-0.522-2.273-0.143-4.76-0.222-7.444c-1.117-0.884-3.569,0.053-3.779-1.556
				c-0.272-2.106,3.603-1.681,6.446-1.556C46.951,34.079,49.612,33.318,49.192,35.88z"/>
			<path fill-rule="evenodd" clip-rule="evenodd" d="M71.527,34.214c3.625-1.637,2.918,2.474,2.779,5.665
				c-0.099,2.163,0.659,5.664-1.781,5.224c-1.617-0.29-1.321-3.209-1.223-5.445C71.397,37.512,71.134,35.53,71.527,34.214z"/>
			<path fill-rule="evenodd" clip-rule="evenodd" d="M51.082,61.772c-0.196-0.741-0.076-2.138-0.113-3.333
				c-0.003-0.191,0.084-0.288,0.223-0.336c1.357,0.125,2.715-0.301,3.556,0.445c0.68,0.604,0.817,1.943,0.111,2.668
				C54.129,61.962,52.67,61.702,51.082,61.772z"/>
			<path fill-rule="evenodd" clip-rule="evenodd" d="M30.19,87.771c-1.444,0-2.89,0-4.335,0c-0.226-0.182-1.215-0.182-1.443,0
				c-1.629,0-3.256,0-4.888,0c-1.362-0.051-2.719-0.971-3-2.331c-0.226-1.096,0-2.737,0-4.223c0-1.464-0.087-2.974,0.223-4.113
				c5.346-0.131,11.433-0.121,16.557-0.108c0.164,1.335,0.153,3.122,0.11,4.888c-0.037,1.614,0.036,3.628-0.446,4.557
				C32.475,87.394,31.311,87.534,30.19,87.771z"/>
			<path fill-rule="evenodd" clip-rule="evenodd" d="M95.861,87.771c-1.444,0-2.89,0-4.335,0c-0.228-0.182-1.216-0.182-1.444,0
				c-1.593,0-3.183,0-4.775,0c-1.341-0.057-2.531-0.742-2.889-2c-0.639-2.217,0.093-6.262,0-8.667
				c5.386-0.131,11.507-0.121,16.665-0.108c0,1.452,0,3.246,0,4.998C99.082,85.387,98.926,87.764,95.861,87.771z"/>
			<path fill-rule="evenodd" clip-rule="evenodd" d="M59.194,26.214c4.036,0,8.072,0,12.108,0c2.008,0.469,5.131-0.251,7.003,0.111
				c1.014,0.196,2.284,1.221,2.999,1.89c1.667,1.56,3.059,3.715,4.334,5.776c0.651,1.053,1.286,2.144,1.89,3.225
				c0.582,1.038,0.998,2.295,2.001,3c0.669-2.633,3.193-3.031,6.664-3.222c1.908-0.106,4.033-0.303,5.558,0.111
				c1.705,0.462,3.277,2.031,3.668,3.111c0.244,0.686,0.16,1.339,0.332,2c-0.325,0.549-0.421,1.11-0.777,1.554
				c-0.968,1.193-3.105,1.669-5.003,2c-1.89,0.332-3.884,0.876-5.887,1.113c0.61,0.941,1.653,1.374,2.445,2.112
				c2.164,2.02,4.208,4.753,4.887,8.444c0.966,5.234,0.036,11.453,0.112,17.335c-7.875,0.633-16.903,0.445-25.668,0.445
				c-15.388-0.002-31.204-0.002-46.669-0.002c-5.456,0-10.261,0.086-15.224-0.443c-0.179-3.085-0.11-6.369-0.11-9.558
				c0-3.258-0.492-6.443,0.334-9.111c0.629-2.032,1.845-3.78,3.001-5.222c0.949-1.186,1.912-2.007,3.109-3
				c0.271-0.224,1.008-0.417,0.777-1c-3.912-1.05-9.123-0.802-11.111-3.779c0-0.925,0-1.852,0-2.778
				c0.894-1.21,1.978-3.113,4.335-3.443c1.46-0.207,5.368-0.227,6.888,0c0.472,0.069,1.111,0.363,1.669,0.555
				c0.572,0.197,1.229,0.361,1.552,0.557c0.893,0.533,1.111,1.718,1.888,2.222c1.776-3.624,3.788-6.703,6.003-10.334
				c0.712-1.166,1.34-2.624,2.333-3c1.427-0.539,4.196-0.271,6.001-0.333C46.666,26.337,53.239,26.378,59.194,26.214z
				 M83.749,42.547c-1.467-2.799-2.572-5.021-4.222-7.665c-0.84-1.347-1.489-2.741-2.666-3.334
				c-2.399-1.208-7.311-0.667-10.669-0.667c-5.447,0-11.221,0-16.669,0c-2.788,0-5.784-0.306-8.331,0
				c-2.638,0.317-4.112,2.217-5.335,4.113c-1.631,2.523-2.698,4.671-4.222,7.554c-0.547,1.032-1.956,3.109-1.445,4.223
				c0.548,1.19,4.117,0.833,6.113,0.778c2.66-0.075,5.025,0,7.221,0c12.09,0,24.055-0.33,35.89,0c2.116,0.058,4.671,0.667,6.001-1
				C85.409,44.93,84.377,43.75,83.749,42.547z M37.748,62.55c-0.593-1.299-1.361-2.64-2.335-3.557
				c-1.667-1.568-4.236-2.214-6.999-2.779c-1.682-0.342-3.532-0.764-4.89-0.666c-2.117,0.153-4.301,1.8-4.554,3.778
				c-0.249,1.912,0.948,3.488,2.109,4.112c1.109,0.595,2.741,0.78,4.222,1.223c1.405,0.416,2.861,0.932,4.226,1.332
				c3.029,0.891,6.236,2.232,8.997,1.222C39.054,65.567,38.361,63.896,37.748,62.55z M85.859,66.105
				c1.372-0.403,2.81-0.809,4.223-1.223c2.844-0.833,6.754-1.561,6.666-5.11c-0.065-2.732-3.146-4.583-6.108-4.111
				c-4.134,0.655-8.73,1.438-10.893,3.887c-1.588,1.805-2.934,4.603-2.664,7.559C79.776,68.298,83.027,66.94,85.859,66.105z
				 M56.859,62.439c1.061-1.336,1.093-3.721-0.109-5.112c-1.469-1.697-4.614-1.298-7.89-1.334c-0.139,0.046-0.23,0.145-0.223,0.334
				c0,4.074,0,8.148,0,12.224c0.777,0,1.555,0,2.332,0c0.074-1.56-0.142-3.404,0.113-4.779
				C53.585,63.862,55.72,63.871,56.859,62.439z M59.859,55.993c0,4.187,0,8.371,0,12.558c2.74,0,5.48,0,8.224,0
				c0-0.667,0-1.335,0-2.003c-1.926-0.071-4.148,0.146-5.889-0.109c0-1.036,0-2.074,0-3.111c1.664,0,3.332,0,4.998,0
				c0-0.704,0-1.408,0-2.11c-1.631-0.073-3.553,0.146-4.998-0.113c0-0.999,0-1.998,0-3c1.964,0,3.926,0,5.889,0
				c-0.057-0.68,0.125-1.607-0.111-2.11C65.266,55.993,62.562,55.993,59.859,55.993z"/>
		</g>
	</g>
</g>
</svg>
