<?xml version="1.0" encoding="utf-8"?>
<!-- Generator: Adobe Illustrator 15.0.0, SVG Export Plug-In . SVG Version: 6.00 Build 0)  -->
<!DOCTYPE svg PUBLIC "-//W3C//DTD SVG 1.1//EN" "http://www.w3.org/Graphics/SVG/1.1/DTD/svg11.dtd">
<svg version="1.1" id="Capa_1" xmlns="http://www.w3.org/2000/svg" xmlns:xlink="http://www.w3.org/1999/xlink" x="0px" y="0px"
	 width="113.387px" height="113.386px" viewBox="0 0 113.387 113.386" enable-background="new 0 0 113.387 113.386"
	 xml:space="preserve">
<g>
	<path fill-rule="evenodd" clip-rule="evenodd" d="M37.912,14.318C30.729,30.99,47.631,48.813,64.967,42
		c5.703-2.24,11.354-8.727,12.584-14.785c3.193-15.729-9.652-27.088-24.224-24.853C46.084,3.474,40.301,8.774,37.912,14.318z"/>
	<path fill-rule="evenodd" clip-rule="evenodd" d="M104.606,73.774c0-4.159,0.599-8.681,0-12.584
		c-0.81-5.275-5.774-10.859-10.696-12.582c-5.165-1.809-13.103-0.944-20.134-0.944c-5.24,0-10.648,0-16.357,0
		c-11.601,0-23.583-0.889-32.403,0C16.721,48.5,10.353,54.887,9.6,63.079c-1.219,13.271,0.663,33.831,0.314,48.131
		c4.299,0,8.599,0,12.898,0c0-7.209,0-14.248,0-22.336c0-7-1.898-16.928,5.348-16.986c7.312-0.061,5.663,9.372,5.663,16.986
		c0,7.804-0.018,16.337,0,22.336c15.624,0,31.249,0,46.873,0c0-5.64,0-11.982,0-19.504c0-9.121-2.07-20.056,5.663-19.818
		c7.008,0.215,5.033,10.036,5.033,16.986c0,7.942,0,14.915,0,22.022c3.789,0.72,8.903,0.115,13.213,0.313
		C104.606,97.865,104.606,86.189,104.606,73.774z"/>
</g>
</svg>
